<svg width="15" height="12" viewBox="0 0 15 12" fill="none" xmlns="http://www.w3.org/2000/svg">
<path d="M13.4402 0.500048H11.7735V1.75005C11.7735 1.87043 11.7498 1.98963 11.7038 2.10084C11.6577 2.21206 11.5902 2.31311 11.5051 2.39823C11.4199 2.48335 11.3189 2.55087 11.2077 2.59694C11.0965 2.643 10.9773 2.66671 10.8569 2.66671C10.7365 2.66671 10.6173 2.643 10.5061 2.59694C10.3949 2.55087 10.2938 2.48335 10.2087 2.39823C10.1236 2.31311 10.0561 2.21206 10.01 2.10084C9.96392 1.98963 9.94021 1.87043 9.94021 1.75005V0.500048H5.08604V1.75005C5.08604 1.99316 4.98947 2.22632 4.81756 2.39823C4.64565 2.57014 4.41249 2.66671 4.16938 2.66671C3.92626 2.66671 3.69311 2.57014 3.5212 2.39823C3.34929 2.22632 3.25271 1.99316 3.25271 1.75005V0.500048H1.58604C1.48689 0.49892 1.38851 0.517687 1.29673 0.555241C1.20496 0.592794 1.12164 0.648371 1.05172 0.718684C0.981792 0.788997 0.926678 0.872618 0.889634 0.964602C0.852589 1.05659 0.834367 1.15507 0.836045 1.25421V10.5792C0.834389 10.6766 0.851938 10.7734 0.887689 10.864C0.923439 10.9546 0.976691 11.0373 1.0444 11.1073C1.11212 11.1774 1.19296 11.2334 1.28232 11.2722C1.37168 11.311 1.46781 11.3318 1.56521 11.3334H13.4402C13.5376 11.3318 13.6337 11.311 13.7231 11.2722C13.8125 11.2334 13.8933 11.1774 13.961 11.1073C14.0287 11.0373 14.082 10.9546 14.1177 10.864C14.1535 10.7734 14.171 10.6766 14.1694 10.5792V1.25421C14.171 1.15681 14.1535 1.06004 14.1177 0.969424C14.082 0.878806 14.0287 0.796119 13.961 0.726086C13.8933 0.656052 13.8125 0.600044 13.7231 0.56126C13.6337 0.522476 13.5376 0.501676 13.4402 0.500048ZM4.16938 8.83338H3.33604V8.00005H4.16938V8.83338ZM4.16938 6.75005H3.33604V5.91672H4.16938V6.75005ZM4.16938 4.66672H3.33604V3.83338H4.16938V4.66672ZM6.66938 8.83338H5.83605V8.00005H6.66938V8.83338ZM6.66938 6.75005H5.83605V5.91672H6.66938V6.75005ZM6.66938 4.66672H5.83605V3.83338H6.66938V4.66672ZM9.16938 8.83338H8.33605V8.00005H9.16938V8.83338ZM9.16938 6.75005H8.33605V5.91672H9.16938V6.75005ZM9.16938 4.66672H8.33605V3.83338H9.16938V4.66672ZM11.6694 8.83338H10.836V8.00005H11.6694V8.83338ZM11.6694 6.75005H10.836V5.91672H11.6694V6.75005ZM11.6694 4.66672H10.836V3.83338H11.6694V4.66672Z" fill="#F37321"/>
</svg>
