<svg width="17" height="17" viewBox="0 0 17 17" fill="none" xmlns="http://www.w3.org/2000/svg">
<path d="M8.5013 8.14518C8.03165 8.14518 7.58123 7.95861 7.24913 7.62652C6.91704 7.29442 6.73047 6.844 6.73047 6.37435C6.73047 5.9047 6.91704 5.45428 7.24913 5.12218C7.58123 4.79009 8.03165 4.60352 8.5013 4.60352C8.97096 4.60352 9.42137 4.79009 9.75347 5.12218C10.0856 5.45428 10.2721 5.9047 10.2721 6.37435C10.2721 6.6069 10.2263 6.83717 10.1373 7.05202C10.0483 7.26687 9.91791 7.46208 9.75347 7.62652C9.58903 7.79095 9.39382 7.92139 9.17897 8.01039C8.96412 8.09938 8.73385 8.14518 8.5013 8.14518ZM8.5013 1.41602C7.18627 1.41602 5.9251 1.93841 4.99523 2.86828C4.06536 3.79815 3.54297 5.05932 3.54297 6.37435C3.54297 10.0931 8.5013 15.5827 8.5013 15.5827C8.5013 15.5827 13.4596 10.0931 13.4596 6.37435C13.4596 5.05932 12.9372 3.79815 12.0074 2.86828C11.0775 1.93841 9.81633 1.41602 8.5013 1.41602Z" fill="#F37321"/>
</svg>
